<svg id="visual" viewBox="0 0 900 300" width="900" height="300" xmlns="http://www.w3.org/2000/svg" xmlns:xlink="http://www.w3.org/1999/xlink" version="1.1"><rect x="0" y="0" width="900" height="300" fill="#001220"></rect><defs><linearGradient id="grad1_0" x1="66.7%" y1="0%" x2="100%" y2="100%"><stop offset="-10%" stop-color="#001220" stop-opacity="1"></stop><stop offset="110%" stop-color="#001220" stop-opacity="1"></stop></linearGradient></defs><defs><linearGradient id="grad2_0" x1="0%" y1="0%" x2="33.3%" y2="100%"><stop offset="-10%" stop-color="#001220" stop-opacity="1"></stop><stop offset="110%" stop-color="#001220" stop-opacity="1"></stop></linearGradient></defs><g transform="translate(900, 0)"><path d="M0 270C-38.4 268.4 -76.8 266.8 -102.6 247.6C-128.3 228.4 -141.4 191.7 -166.9 166.9C-192.3 142.1 -230.2 129.2 -249.4 103.3C-268.7 77.5 -269.3 38.7 -270 0L0 0Z" fill="#FBAE3C"></path></g><g transform="translate(0, 300)"><path d="M0 -270C39.9 -270.8 79.9 -271.7 103.3 -249.4C126.8 -227.2 133.7 -181.9 154.9 -154.9C176 -127.9 211.3 -119.2 232.8 -96.4C254.4 -73.7 262.2 -36.8 270 0L0 0Z" fill="#FBAE3C"></path></g></svg>